<svg width="208" height="31" viewBox="0 0 208 31" fill="none" xmlns="http://www.w3.org/2000/svg">
<path d="M62 30.8052V20.3364H68.146V20.9802H62.6499V24.8763H67.4213V25.52H62.6499V30.8074H62V30.8052Z" fill="#FFFEFC"/>
<path d="M73.687 30.9999C72.8405 30.9999 72.1179 30.7945 71.5172 30.3858C70.9165 29.9771 70.4548 29.4266 70.1362 28.7363C69.8177 28.046 69.6574 27.2795 69.6574 26.4367V20.3341H70.3073V26.4367C70.3073 27.1503 70.4377 27.8025 70.6963 28.3954C70.955 28.9883 71.3376 29.4626 71.8443 29.8204C72.3509 30.1762 72.9645 30.354 73.6891 30.354C74.4138 30.354 75.0487 30.1741 75.5511 29.812C76.0513 29.4499 76.4297 28.9734 76.6884 28.3805C76.9449 27.7877 77.0732 27.1397 77.0732 26.4367V20.3341H77.723V26.4367C77.723 27.0698 77.6333 27.6627 77.4516 28.2133C77.2698 28.7638 77.0069 29.2487 76.6627 29.668C76.3186 30.0872 75.8953 30.4133 75.3951 30.6484C74.8948 30.8834 74.3262 30.9999 73.6934 30.9999H73.687Z" fill="#FFFEFC"/>
<path d="M79.959 30.8052V20.3364H83.3024C83.8604 20.3364 84.3649 20.4677 84.816 20.7324C85.267 20.9971 85.6219 21.3571 85.8848 21.8123C86.1478 22.2676 86.2782 22.78 86.2782 23.3496C86.2782 23.8832 86.1627 24.3639 85.9318 24.7937C85.701 25.2236 85.3867 25.5708 84.9912 25.8398C84.5958 26.1087 84.1575 26.2717 83.6744 26.3268L86.2867 30.8052H85.5321L82.9283 26.3628H80.611V30.8052H79.9612H79.959ZM80.6089 25.7212H83.2746C83.7086 25.7212 84.102 25.6174 84.4611 25.412C84.8181 25.2045 85.1024 24.9208 85.314 24.5587C85.5257 24.1966 85.6304 23.7901 85.6304 23.3369C85.6304 22.8838 85.5257 22.4687 85.314 22.1066C85.1024 21.7446 84.8181 21.4608 84.4611 21.2533C84.1041 21.0458 83.7086 20.942 83.2746 20.942H80.6089V25.7212Z" fill="#FFFEFC"/>
<path d="M88.8158 30.8052V20.3364H89.5255L95.6779 29.647V20.3364H96.3278V30.8052H95.633L89.4657 21.4947V30.8052H88.8158Z" fill="#FFFEFC"/>
<path d="M98.8181 30.8052V20.3364H99.468V30.8052H98.8181Z" fill="#FFFEFC"/>
<path d="M109.945 20.3364V20.9802H106.116V30.8052H105.466V20.9802H101.655V20.3364H109.945Z" fill="#FFFEFC"/>
<path d="M115.939 30.9999C115.093 30.9999 114.37 30.7945 113.769 30.3858C113.169 29.9771 112.707 29.4266 112.388 28.7363C112.07 28.046 111.91 27.2795 111.91 26.4367V20.3341H112.559V26.4367C112.559 27.1503 112.69 27.8025 112.948 28.3954C113.207 28.9883 113.59 29.4626 114.096 29.8204C114.603 30.1762 115.217 30.354 115.941 30.354C116.666 30.354 117.301 30.1741 117.803 29.812C118.303 29.4499 118.682 28.9734 118.941 28.3805C119.197 27.7877 119.325 27.1397 119.325 26.4367V20.3341H119.975V26.4367C119.975 27.0698 119.885 27.6627 119.704 28.2133C119.522 28.7638 119.259 29.2487 118.915 29.668C118.571 30.0872 118.147 30.4133 117.647 30.6484C117.147 30.8834 116.578 30.9999 115.946 30.9999H115.939Z" fill="#FFFEFC"/>
<path d="M122.213 30.8052V20.3364H125.557C126.115 20.3364 126.619 20.4677 127.07 20.7324C127.521 20.9971 127.876 21.3571 128.139 21.8123C128.402 22.2676 128.533 22.78 128.533 23.3496C128.533 23.8832 128.417 24.3639 128.186 24.7937C127.955 25.2236 127.641 25.5708 127.246 25.8398C126.85 26.1087 126.412 26.2717 125.929 26.3268L128.541 30.8052H127.786L125.183 26.3628H122.865V30.8052H122.216H122.213ZM122.863 25.7212H125.529C125.963 25.7212 126.356 25.6174 126.715 25.412C127.072 25.2045 127.357 24.9208 127.568 24.5587C127.78 24.1966 127.885 23.7901 127.885 23.3369C127.885 22.8838 127.78 22.4687 127.568 22.1066C127.357 21.7446 127.072 21.4608 126.715 21.2533C126.358 21.0458 125.963 20.942 125.529 20.942H122.863V25.7212Z" fill="#FFFEFC"/>
<path d="M131.068 30.8052V20.3364H137.402V20.9802H131.718V24.8763H136.504V25.52H131.718V30.1637H137.402V30.8074H131.068V30.8052Z" fill="#FFFEFC"/>
<path d="M143.593 30.8052V20.3364H149.739V20.9802H144.243V24.8763H149.014V25.52H144.243V30.8074H143.593V30.8052Z" fill="#FFFEFC"/>
<path d="M153.535 20.3364H154.427L158.277 30.8052H157.591L156.693 28.3596H151.28L150.382 30.8052H149.687L153.537 20.3364H153.535ZM151.513 27.718H156.451L153.982 21.0098L151.513 27.718Z" fill="#FFFEFC"/>
<path d="M164.626 30.9996C163.912 30.9996 163.239 30.8577 162.61 30.5761C161.982 30.2945 161.428 29.9048 160.953 29.4094C160.477 28.9139 160.105 28.3379 159.835 27.6815C159.566 27.0251 159.431 26.3221 159.431 25.5683C159.431 24.8144 159.566 24.1178 159.835 23.4635C160.105 22.8071 160.477 22.2311 160.953 21.7335C161.428 21.2359 161.982 20.8442 162.61 20.5625C163.239 20.2809 163.912 20.139 164.626 20.139C165.481 20.139 166.27 20.336 166.988 20.7298C167.708 21.1237 168.305 21.6488 168.777 22.3073L168.211 22.6059C167.798 22.0469 167.272 21.6043 166.633 21.274C165.994 20.9458 165.325 20.7806 164.626 20.7806C163.991 20.7806 163.399 20.9077 162.847 21.1618C162.296 21.4159 161.813 21.7631 161.398 22.2057C160.983 22.6461 160.658 23.1564 160.427 23.7345C160.197 24.3126 160.081 24.9245 160.081 25.5661C160.081 26.2077 160.199 26.843 160.436 27.421C160.673 27.9991 161 28.5094 161.417 28.9499C161.834 29.3903 162.317 29.7354 162.867 29.9811C163.416 30.2267 164.002 30.3516 164.626 30.3516C165.361 30.3516 166.043 30.1822 166.672 29.8477C167.3 29.511 167.813 29.0748 168.211 28.5348L168.777 28.8419C168.305 29.5004 167.708 30.0234 166.988 30.413C166.268 30.8027 165.481 30.9953 164.626 30.9953V30.9996Z" fill="#FFFEFC"/>
<path d="M178.652 20.3364V20.9802H174.825V30.8052H174.175V20.9802H170.364V20.3364H178.654H178.652Z" fill="#FFFEFC"/>
<path d="M184.919 30.9996C184.205 30.9996 183.532 30.8577 182.903 30.5761C182.275 30.2945 181.721 29.9048 181.242 29.4051C180.763 28.9075 180.389 28.3294 180.118 27.6751C179.846 27.0187 179.71 26.3178 179.71 25.5704C179.71 24.8229 179.844 24.1199 180.118 23.4656C180.389 22.8092 180.766 22.2332 181.242 21.7356C181.719 21.238 182.275 20.8463 182.903 20.5647C183.532 20.283 184.205 20.1412 184.919 20.1412C185.633 20.1412 186.313 20.283 186.942 20.5647C187.57 20.8463 188.124 21.2359 188.603 21.7356C189.081 22.2353 189.453 22.8113 189.723 23.4656C189.992 24.122 190.127 24.8229 190.127 25.5704C190.127 26.3178 189.992 27.0208 189.723 27.6751C189.453 28.3316 189.079 28.9075 188.603 29.4051C188.124 29.9027 187.57 30.2945 186.942 30.5761C186.313 30.8577 185.638 30.9996 184.919 30.9996ZM184.919 30.3559C185.554 30.3559 186.146 30.2288 186.7 29.9747C187.254 29.7206 187.739 29.3734 188.154 28.9308C188.568 28.4904 188.893 27.9822 189.128 27.4062C189.361 26.8303 189.479 26.2183 189.479 25.5704C189.479 24.9224 189.361 24.302 189.124 23.7239C188.887 23.1459 188.56 22.6355 188.143 22.1951C187.726 21.7547 187.241 21.4095 186.689 21.1597C186.138 20.9098 185.548 20.7849 184.919 20.7849C184.291 20.7849 183.69 20.9119 183.136 21.166C182.583 21.4201 182.097 21.7674 181.683 22.2099C181.268 22.6504 180.943 23.1586 180.708 23.7345C180.473 24.3105 180.357 24.9224 180.357 25.5704C180.357 26.2183 180.475 26.8451 180.712 27.421C180.949 27.997 181.277 28.5052 181.693 28.9456C182.11 29.3861 182.596 29.7312 183.147 29.9811C183.699 30.2309 184.289 30.3559 184.917 30.3559H184.919Z" fill="#FFFEFC"/>
<path d="M192.196 30.8052V20.3364H195.54C196.098 20.3364 196.602 20.4677 197.053 20.7324C197.504 20.9971 197.859 21.3571 198.122 21.8123C198.383 22.2676 198.515 22.78 198.515 23.3496C198.515 23.8832 198.4 24.3639 198.169 24.7937C197.938 25.2236 197.624 25.5708 197.228 25.8398C196.833 26.1087 196.395 26.2717 195.912 26.3268L198.524 30.8052H197.769L195.165 26.3628H192.848V30.8052H192.198H192.196ZM192.846 25.7212H195.512C195.944 25.7212 196.339 25.6174 196.696 25.412C197.053 25.2045 197.337 24.9208 197.549 24.5587C197.761 24.1966 197.865 23.7901 197.865 23.3369C197.865 22.8838 197.761 22.4687 197.549 22.1066C197.337 21.7446 197.053 21.4608 196.696 21.2533C196.339 21.0458 195.944 20.942 195.512 20.942H192.846V25.7212Z" fill="#FFFEFC"/>
<path d="M207.03 20.3364H207.793L204.268 26.0579V30.8074H203.618V26.0579L200.099 20.3364H200.863L203.943 25.3464L207.03 20.3364Z" fill="#FFFEFC"/>
<path d="M70.288 4.14179V4.7855H66.4614V14.6106H65.8116V4.7855H62V4.14179H70.2901H70.288Z" fill="#FFFEFC"/>
<path d="M72.2504 14.6106V4.14179H78.5845V4.7855H72.9002V8.68166H77.6866V9.32537H72.9002V13.969H78.5845V14.6127H72.2504V14.6106Z" fill="#FFFEFC"/>
<path d="M88.6852 4.14179V4.7855H84.8565V14.6106H84.2067V4.7855H80.3951V4.14179H88.6852Z" fill="#FFFEFC"/>
<path d="M90.8744 14.6106V4.14179H91.5242V14.6106H90.8744Z" fill="#FFFEFC"/>
<path d="M97.653 14.8034C97.0994 14.8034 96.5628 14.7187 96.0412 14.5493C95.5196 14.3799 95.0664 14.1385 94.6794 13.823C94.2925 13.5096 94.0189 13.1327 93.865 12.6944L94.47 12.4635C94.6004 12.832 94.8355 13.1433 95.1711 13.3952C95.5089 13.6472 95.8958 13.8378 96.334 13.967C96.7723 14.0961 97.2127 14.1618 97.6552 14.1618C98.1939 14.1618 98.6962 14.0707 99.1644 13.8886C99.6326 13.7065 100.011 13.4482 100.3 13.1157C100.588 12.7812 100.733 12.3894 100.733 11.9426C100.733 11.4959 100.584 11.1084 100.285 10.8162C99.9853 10.5239 99.6005 10.2931 99.1302 10.1216C98.6599 9.9501 98.1682 9.81882 97.6552 9.72989C96.9454 9.60072 96.3105 9.43344 95.7483 9.23228C95.1861 9.03112 94.7436 8.74314 94.4186 8.37258C94.0937 8.00202 93.9312 7.49806 93.9312 6.86494C93.9312 6.28263 94.1044 5.77656 94.4486 5.34671C94.7927 4.91686 95.2481 4.58654 95.8146 4.3515C96.3811 4.11646 96.9925 4 97.653 4C98.181 4 98.7048 4.08046 99.2221 4.2435C99.7416 4.40655 100.197 4.64371 100.592 4.96133C100.988 5.27895 101.272 5.66645 101.45 6.12382L100.83 6.33981C100.699 5.97137 100.466 5.66009 100.131 5.40811C99.795 5.15613 99.4102 4.96556 98.972 4.83639C98.5338 4.70723 98.0934 4.64159 97.6509 4.64159C97.1079 4.64159 96.6034 4.73476 96.1374 4.91898C95.6714 5.1032 95.2951 5.36153 95.0087 5.69609C94.7222 6.03065 94.579 6.41815 94.579 6.86282C94.579 7.37101 94.7136 7.76487 94.983 8.04437C95.2524 8.32388 95.6179 8.53351 96.0775 8.67538C96.5371 8.81725 97.063 8.94219 97.6509 9.0523C98.305 9.17299 98.9143 9.34662 99.4808 9.57955C100.047 9.81035 100.505 10.1195 100.855 10.507C101.206 10.8924 101.379 11.3709 101.379 11.9384C101.379 12.5059 101.206 13.0268 100.857 13.4566C100.509 13.8865 100.054 14.2168 99.4872 14.4519C98.9207 14.6869 98.3093 14.8034 97.6488 14.8034H97.653Z" fill="#FFFEFC"/>
<path d="M49.7757 9.23202C49.5252 9.0459 49.1659 9.09243 48.9743 9.33574L41.9269 18.2937L17.4291 0.11408C17.1786 -0.0720395 16.8193 -0.0255088 16.6276 0.217804C16.436 0.461117 16.4839 0.810091 16.7344 0.996211L28.89 10.0172L20.575 20.5863L8.76679 11.8241L15.8142 2.86614C16.0058 2.62282 15.9579 2.27385 15.7074 2.08773C15.4569 1.90161 15.0976 1.94814 14.906 2.19145L0.117458 20.9896C-0.0741725 21.2329 -0.0262641 21.5819 0.224253 21.768C0.47477 21.9541 0.834078 21.9076 1.02571 21.6643L8.07312 12.7063L32.5709 30.8859C32.8214 31.072 33.1807 31.0255 33.3724 30.7822C33.564 30.5389 33.5161 30.1899 33.2656 30.0038L21.4843 21.261L29.7993 10.6919L41.2332 19.1768L34.1858 28.1348C33.9942 28.3781 34.0421 28.7271 34.2926 28.9132C34.5431 29.0994 34.9024 29.0528 35.094 28.8095L49.8825 10.0114C50.0742 9.76808 50.0263 9.41911 49.7757 9.23299V9.23202Z" fill="#FFFEFC"/>
</svg>
