<svg width="393" height="57" viewBox="0 0 393 57" fill="none" xmlns="http://www.w3.org/2000/svg">
<path d="M90.5919 16.975C90.1359 16.6328 89.482 16.7183 89.1332 17.1657L76.3069 33.6369L31.721 0.209761C31.265 -0.13246 30.6111 -0.0469034 30.2623 0.400479C29.9135 0.847861 30.0007 1.48952 30.4567 1.83174L52.5798 18.4187L37.4466 37.8523L15.9556 21.7411L28.7819 5.26999C29.1306 4.82261 29.0434 4.18095 28.5875 3.83873C28.1315 3.49651 27.4776 3.58206 27.1288 4.02944L0.213774 38.5937C-0.134994 39.0411 -0.0478007 39.6828 0.408141 40.025C0.864082 40.3672 1.51802 40.2817 1.86679 39.8343L14.6931 23.3631L59.2791 56.7902C59.735 57.1325 60.3889 57.0469 60.7377 56.5995C61.0865 56.1521 60.9993 55.5105 60.5433 55.1683L39.1014 39.0928L54.2346 19.6593L75.0444 35.2606L62.2182 51.7318C61.8694 52.1792 61.9566 52.8208 62.4125 53.1631C62.8685 53.5053 63.5224 53.4197 63.8712 52.9723L90.7862 18.4081C91.135 17.9607 91.0478 17.319 90.5919 16.9768V16.975Z" fill="#1C1B1E"/>
<path d="M112 56.6245V36.4624H123.837V37.7022H113.252V45.2059H122.441V46.4456H113.252V56.6286H112V56.6245Z" fill="#1C1B1E"/>
<path d="M134.508 56.9994C132.877 56.9994 131.486 56.6038 130.329 55.8168C129.172 55.0297 128.282 53.9694 127.669 52.6399C127.056 51.3105 126.747 49.8342 126.747 48.2111V36.458H127.998V48.2111C127.998 49.5854 128.25 50.8415 128.748 51.9833C129.246 53.1252 129.983 54.0387 130.959 54.7279C131.934 55.413 133.116 55.7556 134.512 55.7556C135.907 55.7556 137.13 55.409 138.098 54.7116C139.061 54.0142 139.79 53.0967 140.288 51.9548C140.782 50.8129 141.029 49.565 141.029 48.2111V36.458H142.281V48.2111C142.281 49.4305 142.108 50.5723 141.758 51.6326C141.408 52.6929 140.901 53.6268 140.239 54.4343C139.576 55.2418 138.76 55.8698 137.797 56.3225C136.834 56.7751 135.739 56.9994 134.52 56.9994H134.508Z" fill="#1C1B1E"/>
<path d="M146.588 56.6245V36.4624H153.028C154.102 36.4624 155.074 36.7152 155.942 37.225C156.811 37.7348 157.495 38.4281 158.001 39.3049C158.507 40.1816 158.759 41.1686 158.759 42.2656C158.759 43.2932 158.536 44.2189 158.092 45.0468C157.647 45.8747 157.042 46.5435 156.28 47.0614C155.518 47.5793 154.674 47.8933 153.744 47.9994L158.775 56.6245H157.322L152.307 48.0687H147.844V56.6245H146.593H146.588ZM147.84 46.833H152.974C153.81 46.833 154.567 46.6332 155.259 46.2376C155.947 45.838 156.494 45.2915 156.902 44.5941C157.309 43.8968 157.511 43.1138 157.511 42.2411C157.511 41.3684 157.309 40.569 156.902 39.8717C156.494 39.1743 155.947 38.6279 155.259 38.2282C154.571 37.8286 153.81 37.6287 152.974 37.6287H147.84V46.833Z" fill="#1C1B1E"/>
<path d="M163.644 56.6245V36.4624H165.011L176.86 54.3938V36.4624H178.112V56.6245H176.774L164.896 38.6931V56.6245H163.644Z" fill="#1C1B1E"/>
<path d="M182.91 56.6245V36.4624H184.161V56.6245H182.91Z" fill="#1C1B1E"/>
<path d="M204.338 36.4624V37.7022H196.964V56.6245H195.713V37.7022H188.372V36.4624H204.338Z" fill="#1C1B1E"/>
<path d="M215.882 56.9994C214.252 56.9994 212.86 56.6038 211.704 55.8168C210.547 55.0297 209.657 53.9694 209.044 52.6399C208.43 51.3105 208.122 49.8342 208.122 48.2111V36.458H209.373V48.2111C209.373 49.5854 209.624 50.8415 210.123 51.9833C210.621 53.1252 211.358 54.0387 212.333 54.7279C213.309 55.413 214.491 55.7556 215.886 55.7556C217.282 55.7556 218.505 55.409 219.472 54.7116C220.436 54.0142 221.165 53.0967 221.663 51.9548C222.157 50.8129 222.404 49.565 222.404 48.2111V36.458H223.655V48.2111C223.655 49.4305 223.483 50.5723 223.133 51.6326C222.783 52.6929 222.276 53.6268 221.613 54.4343C220.951 55.2418 220.135 55.8698 219.172 56.3225C218.209 56.7751 217.113 56.9994 215.895 56.9994H215.882Z" fill="#1C1B1E"/>
<path d="M227.966 56.6245V36.4624H234.405C235.48 36.4624 236.451 36.7152 237.32 37.225C238.189 37.7348 238.872 38.4281 239.378 39.3049C239.885 40.1816 240.136 41.1686 240.136 42.2656C240.136 43.2932 239.914 44.2189 239.469 45.0468C239.024 45.8747 238.419 46.5435 237.657 47.0614C236.896 47.5793 236.052 47.8933 235.121 47.9994L240.152 56.6245H238.699L233.684 48.0687H229.222V56.6245H227.97H227.966ZM229.217 46.833H234.351C235.187 46.833 235.945 46.6332 236.636 46.2376C237.324 45.838 237.872 45.2915 238.279 44.5941C238.687 43.8968 238.888 43.1138 238.888 42.2411C238.888 41.3684 238.687 40.569 238.279 39.8717C237.872 39.1743 237.324 38.6279 236.636 38.2282C235.949 37.8286 235.187 37.6287 234.351 37.6287H229.217V46.833Z" fill="#1C1B1E"/>
<path d="M245.019 56.6245V36.4624H257.218V37.7022H246.271V45.2059H255.489V46.4456H246.271V55.3889H257.218V56.6286H245.019V56.6245Z" fill="#1C1B1E"/>
<path d="M269.143 56.6245V36.4624H280.979V37.7022H270.394V45.2059H279.584V46.4456H270.394V56.6286H269.143V56.6245Z" fill="#1C1B1E"/>
<path d="M288.29 36.4624H290.007L297.422 56.6245H296.1L294.371 51.9143H283.947L282.217 56.6245H280.879L288.294 36.4624H288.29ZM284.395 50.6787H293.906L289.151 37.7592L284.395 50.6787Z" fill="#1C1B1E"/>
<path d="M309.65 56.9991C308.275 56.9991 306.978 56.7259 305.768 56.1835C304.557 55.6411 303.491 54.8907 302.577 53.9365C301.659 52.9822 300.942 51.8729 300.423 50.6087C299.905 49.3445 299.645 47.9906 299.645 46.5388C299.645 45.087 299.905 43.7453 300.423 42.4851C300.942 41.2209 301.659 40.1117 302.577 39.1533C303.491 38.195 304.557 37.4405 305.768 36.8981C306.978 36.3558 308.275 36.0825 309.65 36.0825C311.297 36.0825 312.816 36.4618 314.199 37.2203C315.587 37.9788 316.735 38.9902 317.645 40.2585L316.554 40.8335C315.76 39.7569 314.747 38.9046 313.516 38.2684C312.285 37.6363 310.996 37.3182 309.65 37.3182C308.427 37.3182 307.287 37.5629 306.225 38.0523C305.162 38.5416 304.232 39.2104 303.433 40.0628C302.634 40.911 302.009 41.8938 301.564 43.0071C301.119 44.1205 300.897 45.299 300.897 46.5347C300.897 47.7704 301.123 48.9938 301.58 50.1071C302.037 51.2204 302.667 52.2033 303.47 53.0515C304.273 53.8997 305.203 54.5645 306.262 55.0375C307.32 55.5106 308.448 55.7512 309.65 55.7512C311.066 55.7512 312.38 55.425 313.59 54.7806C314.8 54.1322 315.789 53.2921 316.554 52.2522L317.645 52.8435C316.735 54.1118 315.587 55.1191 314.199 55.8695C312.812 56.6199 311.297 56.991 309.65 56.991V56.9991Z" fill="#1C1B1E"/>
<path d="M336.662 36.4624V37.7022H329.293V56.6245H328.041V37.7022H320.7V36.4624H336.666H336.662Z" fill="#1C1B1E"/>
<path d="M348.732 56.9989C347.357 56.9989 346.06 56.7257 344.85 56.1833C343.64 55.6409 342.573 54.8906 341.651 53.9281C340.729 52.9698 340.008 51.8565 339.485 50.5963C338.963 49.3321 338.699 47.9823 338.699 46.5427C338.699 45.1031 338.958 43.7492 339.485 42.4891C340.008 41.2248 340.733 40.1156 341.651 39.1572C342.569 38.1989 343.64 37.4444 344.85 36.902C346.06 36.3597 347.357 36.0864 348.732 36.0864C350.108 36.0864 351.417 36.3597 352.627 36.902C353.838 37.4444 354.904 38.1948 355.826 39.1572C356.748 40.1197 357.465 41.2289 357.984 42.4891C358.502 43.7533 358.762 45.1031 358.762 46.5427C358.762 47.9823 358.502 49.3362 357.984 50.5963C357.465 51.8605 356.744 52.9698 355.826 53.9281C354.904 54.8865 353.838 55.6409 352.627 56.1833C351.417 56.7257 350.116 56.9989 348.732 56.9989ZM348.732 55.7592C349.955 55.7592 351.096 55.5145 352.162 55.0251C353.228 54.5358 354.163 53.867 354.962 53.0146C355.76 52.1664 356.386 51.1876 356.839 50.0784C357.288 48.9692 357.514 47.7906 357.514 46.5427C357.514 45.2948 357.288 44.0999 356.831 42.9866C356.374 41.8732 355.744 40.8904 354.941 40.0422C354.138 39.1939 353.204 38.5292 352.141 38.048C351.079 37.5668 349.943 37.3262 348.732 37.3262C347.522 37.3262 346.365 37.5709 345.299 38.0602C344.232 38.5496 343.298 39.2184 342.499 40.0707C341.7 40.919 341.075 41.8977 340.622 43.007C340.169 44.1162 339.947 45.2948 339.947 46.5427C339.947 47.7906 340.173 48.9977 340.63 50.1069C341.087 51.2162 341.717 52.1949 342.52 53.0432C343.323 53.8914 344.257 54.5561 345.319 55.0374C346.382 55.5186 347.518 55.7592 348.728 55.7592H348.732Z" fill="#1C1B1E"/>
<path d="M362.749 56.6245V36.4624H369.188C370.262 36.4624 371.234 36.7152 372.103 37.225C372.971 37.7348 373.655 38.4281 374.161 39.3049C374.664 40.1816 374.919 41.1686 374.919 42.2656C374.919 43.2932 374.696 44.2189 374.252 45.0468C373.807 45.8747 373.202 46.5435 372.44 47.0614C371.679 47.5793 370.835 47.8933 369.904 47.9994L374.935 56.6245H373.482L368.467 48.0687H364.004V56.6245H362.753H362.749ZM364 46.833H369.134C369.966 46.833 370.728 46.6332 371.415 46.2376C372.103 45.838 372.65 45.2915 373.058 44.5941C373.465 43.8968 373.667 43.1138 373.667 42.2411C373.667 41.3684 373.465 40.569 373.058 39.8717C372.65 39.1743 372.103 38.6279 371.415 38.2282C370.728 37.8286 369.966 37.6287 369.134 37.6287H364V46.833Z" fill="#1C1B1E"/>
<path d="M391.317 36.4624H392.787L385.998 47.4814V56.6286H384.746V47.4814L377.969 36.4624H379.439L385.372 46.1112L391.317 36.4624Z" fill="#1C1B1E"/>
<path d="M127.962 5.27295V6.51268H120.592V25.4351H119.341V6.51268H112V5.27295H127.966H127.962Z" fill="#1C1B1E"/>
<path d="M131.742 25.4351V5.27295H143.941V6.51268H132.994V14.0164H142.212V15.2561H132.994V24.1994H143.941V25.4392H131.742V25.4351Z" fill="#1C1B1E"/>
<path d="M163.393 5.27295V6.51268H156.019V25.4351H154.768V6.51268H147.427V5.27295H163.393Z" fill="#1C1B1E"/>
<path d="M167.61 25.4351V5.27295H168.862V25.4351H167.61Z" fill="#1C1B1E"/>
<path d="M180.666 25.8065C179.599 25.8065 178.566 25.6434 177.561 25.3171C176.557 24.9909 175.684 24.5259 174.939 23.9183C174.194 23.3147 173.667 22.5889 173.37 21.7447L174.535 21.3002C174.786 22.0098 175.239 22.6092 175.886 23.0945C176.536 23.5798 177.281 23.9469 178.125 24.1956C178.969 24.4444 179.817 24.5708 180.67 24.5708C181.707 24.5708 182.675 24.3954 183.576 24.0447C184.478 23.694 185.207 23.1965 185.763 22.5562C186.318 21.9119 186.598 21.1574 186.598 20.2969C186.598 19.4365 186.31 18.6902 185.734 18.1274C185.157 17.5646 184.416 17.1201 183.511 16.7898C182.605 16.4595 181.658 16.2066 180.67 16.0353C179.303 15.7866 178.08 15.4644 176.997 15.077C175.914 14.6896 175.062 14.1349 174.436 13.4213C173.811 12.7076 173.498 11.737 173.498 10.5177C173.498 9.39618 173.831 8.42152 174.494 7.59367C175.157 6.76581 176.034 6.12962 177.125 5.67695C178.216 5.22428 179.393 5 180.666 5C181.683 5 182.691 5.15495 183.688 5.46897C184.688 5.78298 185.565 6.23973 186.327 6.85145C187.088 7.46316 187.636 8.20945 187.978 9.09032L186.784 9.5063C186.533 8.79671 186.084 8.19722 185.437 7.71192C184.791 7.22663 184.05 6.85959 183.206 6.61083C182.362 6.36207 181.514 6.23565 180.662 6.23565C179.616 6.23565 178.644 6.41509 177.747 6.76988C176.849 7.12468 176.124 7.6222 175.573 8.26654C175.021 8.91088 174.745 9.65718 174.745 10.5136C174.745 11.4923 175.005 12.2509 175.523 12.7892C176.042 13.3275 176.746 13.7312 177.631 14.0044C178.516 14.2777 179.529 14.5183 180.662 14.7303C181.921 14.9628 183.095 15.2972 184.186 15.7458C185.277 16.1903 186.158 16.7857 186.833 17.532C187.508 18.2742 187.842 19.1959 187.842 20.2888C187.842 21.3817 187.508 22.3849 186.837 23.2128C186.166 24.0406 185.289 24.6768 184.198 25.1295C183.107 25.5822 181.93 25.8065 180.657 25.8065H180.666Z" fill="#1C1B1E"/>
</svg>
